<svg xmlns="http://www.w3.org/2000/svg" xmlns:xlink="http://www.w3.org/1999/xlink" xmlns:inkscape="http://www.inkscape.org/namespaces/inkscape" version="1.1" width="156.87377" height="156.87377" viewBox="0 0 156.87377 156.87377">
<g inkscape:groupmode="layer" inkscape:label="Layer 1">
<path transform="matrix(1,0,0,-1,0,156.87377)" d="M156.87377 78.43688C156.87377 121.75638 121.75638 156.87377 78.43688 156.87377 35.11739 156.87377 0 121.75638 0 78.43688 0 35.11739 35.11739 0 78.43688 0 121.75638 0 156.87377 35.11739 156.87377 78.43688Z" fill="#facc15"/>
<path transform="matrix(1,0,0,-1,0,156.87377)" d="M47.49809 97.13329H72.18718V22.446038C72.18718 21.636069 72.208438 21.458323 72.399707 20.668574 72.88669 18.657872 73.70304 17.694848 75.4836 16.587719 77.51531 15.32442 80.240039 15.406996 82.436809 17.261229 83.25434 17.951292 84.4844 19.686646 84.62502 20.97904 84.68055 21.489369 84.68672 21.636069 84.68672 22.446038V97.13329H109.37581C110.18578 97.13329 110.33248 97.13946 110.84281 97.194988 112.84932 97.413318 114.41621 99.181407 114.93561 100.00819 116.47459 102.457927 116.48399 103.54393 115.560588 105.63298 114.925479 107.06979 113.20108 109.31453 110.84281 109.57113 110.33248 109.62666 110.18578 109.63283 109.37581 109.63283H84.68672V134.32192C84.68672 135.1319 84.68055 135.2786 84.62502 135.78893 84.443828 137.4542 82.84667 139.2618 82.18681 139.75672 79.557178 141.7291 77.52236 141.37741 75.18707 140.00672 73.581768 139.06449 73.09226 138.42978 72.44439 136.25164 72.2129 135.47336 72.18718 135.29689 72.18718 134.48691V109.63283H47.49809C46.688119 109.63283 46.510374 109.61158 45.720624 109.4203 43.236494 108.81866 42.23593 107.63174 41.313318 105.63298 40.384756 103.62134 40.437887 102.37667 41.813299 100.13318 42.317628 99.31055 43.988088 97.41728 46.03109 97.194988 46.541418 97.13946 46.688119 97.13329 47.49809 97.13329Z" fill-rule="evenodd"/>
</g>
</svg>
